<mxfile host="app.diagrams.net" modified="2023-12-08T15:56:34.227Z" agent="Mozilla/5.0 (Windows NT 10.0; Win64; x64) AppleWebKit/537.36 (KHTML, like Gecko) Chrome/119.0.0.0 Safari/537.36" version="22.1.7" etag="3rkTj0BY-sim1TbpHtla" type="github">
  <diagram name="Pagina-1" id="CpfnppU9-VtZ_XKb45yN">
    <mxGraphModel>
      <root>
        <mxCell id="0" />
        <mxCell id="1" parent="0" />
      </root>
    </mxGraphModel>
  </diagram>
</mxfile>
